<svg xmlns="http://www.w3.org/2000/svg" id="icon_thumb_down_16px" width="16" height="16" viewBox="0 0 16 16">
    <path id="패스_29" fill="none" d="M0 0h16v16H0zm0 0h16v16H0z"/>
    <g id="그룹_710" transform="rotate(180 25 10)">
        <path id="패스_256" d="M37 11v6h-1v-6h1m1-1h-3v8h3v-8z" fill="#b2b2b2"/>
        <path id="패스_257" d="M44 10l1-2V5h-2l-2 3-2 2v2a.5.5 0 0 0 1 0v-1.586l1.707-1.707.07-.07.055-.082L43.535 6H44v1.764l-.894 1.789L42.382 11H48v2.877L47.219 17H40v-2a.5.5 0 0 0-1 0v3h9l1-4v-4z" fill="#b2b2b2"/>
    </g>
</svg>
