<svg xmlns="http://www.w3.org/2000/svg" width="24" height="24" viewBox="0 0 24 24">
    <path fill="none" d="M0 0h24v24H0zm0 0h24v24H0zm0 0h24v24H0zm0 0h24v24H0z"/>
    <path d="M-55 50c-7 0-10 6-10 7s3 7 10 7 10-6 10-7-3-7-10-7zm-8.995 7a9.257 9.257 0 0 1 3.762-4.526l2.085 2.085A3.962 3.962 0 0 0-59 57a4 4 0 0 0 4 4 3.962 3.962 0 0 0 2.441-.852l1.885 1.885A9.743 9.743 0 0 1-55 63a9.5 9.5 0 0 1-8.995-6zm11.435 1.733l-4.173-4.173A2.98 2.98 0 0 1-55 54a3 3 0 0 1 3 3 2.98 2.98 0 0 1-.56 1.733zm-.707.707A2.98 2.98 0 0 1-55 60a3 3 0 0 1-3-3 2.98 2.98 0 0 1 .56-1.733zm3.5 2.086l-2.085-2.085A3.962 3.962 0 0 0-51 57a4 4 0 0 0-4-4 3.962 3.962 0 0 0-2.441.852l-1.885-1.885A9.743 9.743 0 0 1-55 51a9.5 9.5 0 0 1 8.995 6 9.257 9.257 0 0 1-3.762 4.526z" transform="translate(67 -45)"/>
</svg>
