<svg xmlns="http://www.w3.org/2000/svg" width="29" height="33" viewBox="0 0 29 33">
    <defs>
        <filter id="패스_354" width="29" height="33" x="0" y="0" filterUnits="userSpaceOnUse">
            <feOffset/>
            <feGaussianBlur result="blur" stdDeviation="2.5"/>
            <feFlood flood-opacity=".039"/>
            <feComposite in2="blur" operator="in"/>
            <feComposite in="SourceGraphic"/>
        </filter>
        <filter id="패스_190" width="20" height="24" x="4.5" y="4.5" filterUnits="userSpaceOnUse">
            <feOffset/>
            <feGaussianBlur result="blur-2" stdDeviation="1"/>
            <feFlood flood-opacity=".078"/>
            <feComposite in2="blur-2" operator="in"/>
            <feComposite in="SourceGraphic"/>
        </filter>
        <filter id="패스_353" width="17" height="21" x="6" y="6" filterUnits="userSpaceOnUse">
            <feOffset/>
            <feGaussianBlur result="blur-3" stdDeviation=".5"/>
            <feFlood flood-opacity=".122"/>
            <feComposite in2="blur-3" operator="in"/>
            <feComposite in="SourceGraphic"/>
        </filter>
        <style>
            .cls-1{fill:#fff}
        </style>
    </defs>
    <g id="icon_bookmark_white_off_24px" transform="translate(2.5 4.5)">
        <g filter="url(#패스_354)" transform="translate(-2.5 -4.5)">
            <path id="패스_354-2" d="M206.5 324.5a.5.5 0 0 0 .5-.5v-7h-14v18l7-4 7 4v-8a.5.5 0 0 0-1 0v6.277l-5.5-3.145-.5-.284-.5.284-5.5 3.145V318h12v6a.5.5 0 0 0 .5.5z" class="cls-1" transform="translate(-185.5 -309.5)"/>
        </g>
        <path id="패스_57" fill="none" d="M0 0h24v24H0z"/>
        <g filter="url(#패스_190)" transform="translate(-2.5 -4.5)">
            <path id="패스_190-2" d="M206.5 324.5a.5.5 0 0 0 .5-.5v-7h-14v18l7-4 7 4v-8a.5.5 0 0 0-1 0v6.277l-5.5-3.145-.5-.284-.5.284-5.5 3.145V318h12v6a.5.5 0 0 0 .5.5z" class="cls-1" transform="translate(-185.5 -309.5)"/>
        </g>
        <g filter="url(#패스_353)" transform="translate(-2.5 -4.5)">
            <path id="패스_353-2" d="M206.5 324.5a.5.5 0 0 0 .5-.5v-7h-14v18l7-4 7 4v-8a.5.5 0 0 0-1 0v6.277l-5.5-3.145-.5-.284-.5.284-5.5 3.145V318h12v6a.5.5 0 0 0 .5.5z" class="cls-1" transform="translate(-185.5 -309.5)"/>
        </g>
    </g>
</svg>
