<svg xmlns="http://www.w3.org/2000/svg" id="icon_bookmark_gray_off_16px" width="16" height="16" viewBox="0 0 16 16">
    <defs>
        <style>
            .cls-1{fill:none}
        </style>
    </defs>
    <path id="패스_57" d="M0 0h16v16H0z" class="cls-1"/>
    <g id="그룹_744" transform="translate(-35 -51)">
        <path id="패스_350" d="M46 59v-4h-6v7l2.167-1.625.233-.175.267-.2.333-.25.333.25.267.2.233.175L46 62v-3z" class="cls-1"/>
        <path id="패스_351" fill="#b2b2b2" d="M39 54v10l4-3 4 3v-5a.5.5 0 0 0-1 0v3l-2.167-1.625-.233-.175-.267-.2-.333-.25-.333.25-.267.2-.233.175L40 62v-7h6v2a.5.5 0 0 0 1 0v-3z"/>
    </g>
</svg>
