<svg xmlns="http://www.w3.org/2000/svg" id="icon_medical_services_16px" width="16" height="16" viewBox="0 0 16 16">
    <g id="그룹_585">
        <path id="사각형_1324" fill="none" d="M0 0H16V16H0z"/>
    </g>
    <g id="그룹_721" transform="translate(-112 82)">
        <path id="패스_277" d="M120.5-75h-1v1.5H118v1h1.5v1.5h1v-1.5h1.5v-1h-1.5z" fill="#939597"/>
        <path id="패스_278" d="M123-78v-2h-6v2h-3v10h7a.5.5 0 0 0 .5-.5.5.5 0 0 0-.5-.5h-6v-8h10v8h-1a.5.5 0 0 0-.5.5.5.5 0 0 0 .5.5h2v-10zm-5 0v-1h4v1z" fill="#939597"/>
    </g>
</svg>
