<svg xmlns="http://www.w3.org/2000/svg" id="icon_face_16px" width="16" height="16" viewBox="0 0 16 16">
    <defs>
        <style>
            .cls-1{fill:none}.cls-3{fill:#939597}
        </style>
    </defs>
    <path id="패스_155" d="M0 0h16v16H0z" fill="none"/>
    <g id="그룹_723" transform="translate(79 31)">
        <path id="패스_282" d="M-72.01-27.9a4.979 4.979 0 0 0-2.814 1.715A1.994 1.994 0 0 0-74-26a2 2 0 0 0 1.99-1.9z" fill="none"/>
        <path id="패스_283" d="M-71-28c0 1.084 1.374 2 3 2a4.145 4.145 0 0 0 .889-.1A4.973 4.973 0 0 0-71-28z" fill="none"/>
        <path id="패스_284" d="M-71.429-26.477A2.987 2.987 0 0 1-74-25a2.968 2.968 0 0 1-1.384-.353A4.934 4.934 0 0 0-76-23a5.006 5.006 0 0 0 5 5 5.006 5.006 0 0 0 5-5 4.94 4.94 0 0 0-.54-2.213A5.14 5.14 0 0 1-68-25a4.369 4.369 0 0 1-3.429-1.477z" fill="none"/>
        <path id="패스_285" fill="#040100" d="M-71.987-27.9c0-.034-.013-.066-.013-.1 0 .035-.009.068-.01.1z"/>
        <path id="패스_286" d="M-65.6-25.611a5.925 5.925 0 0 0-.508-.86 5.985 5.985 0 0 0-4.475-2.508c-.141-.009-.278-.021-.417-.021-.061 0-.12.007-.181.009q-.3.009-.6.047c-.146.019-.292.037-.434.066a6 6 0 0 0-3.4 2.046 6.036 6.036 0 0 0-.588.853A5.968 5.968 0 0 0-77-23a6 6 0 0 0 6 6 6 6 0 0 0 6-6 5.967 5.967 0 0 0-.6-2.611zm-1.507-.493A4.145 4.145 0 0 1-68-26c-1.626 0-3-.916-3-2a4.973 4.973 0 0 1 3.889 1.9zm-4.9-1.793A2 2 0 0 1-74-26a1.994 1.994 0 0 1-.824-.182A4.979 4.979 0 0 1-72.01-27.9zM-71-18a5.006 5.006 0 0 1-5-5 4.934 4.934 0 0 1 .616-2.353A2.968 2.968 0 0 0-74-25a2.987 2.987 0 0 0 2.571-1.477A4.369 4.369 0 0 0-68-25a5.14 5.14 0 0 0 1.46-.213A4.94 4.94 0 0 1-66-23a5.006 5.006 0 0 1-5 5z" class="cls-3"/>
        <circle id="타원_214" cx="1" cy="1" r="1" class="cls-3" transform="translate(-74 -24)"/>
        <circle id="타원_215" cx="1" cy="1" r="1" class="cls-3" transform="translate(-70 -24)"/>
        <path id="패스_287" d="M-68-21h-6c0 1.1 1.343 2 3 2s3-.9 3-2z" class="cls-3"/>
    </g>
</svg>
