<svg xmlns="http://www.w3.org/2000/svg" id="icon_search_24px" width="24" height="24" viewBox="0 0 24 24">
    <path id="패스_67" d="M0 0h24v24H0z" fill="none"/>
    <g id="그룹_664" transform="translate(-261 -280)">
        <path id="사각형_16759" d="M0 0H24V24H0z" fill="none" transform="translate(261 280)"/>
        <g id="그룹_663">
            <g id="그룹_661">
                <path id="패스_207" d="M276.523 295.5a.488.488 0 0 0 0 .689l5.148 5.167a.483.483 0 0 0 .687 0 .49.49 0 0 0 0-.689l-5.149-5.167a.484.484 0 0 0-.686 0z"/>
                <path id="패스_208" d="M274.807 293.778a.488.488 0 0 0 0 .689l.343.345a.486.486 0 0 0 .686-.689l-.343-.345a.484.484 0 0 0-.686 0z"/>
            </g>
            <g id="그룹_662">
                <path id="패스_209" d="M270.3 296.141a6.821 6.821 0 1 1 6.8-6.82 6.816 6.816 0 0 1-6.8 6.82zm0-12.667a5.847 5.847 0 1 0 5.825 5.847 5.843 5.843 0 0 0-5.825-5.847z"/>
            </g>
        </g>
    </g>
</svg>
