<svg xmlns="http://www.w3.org/2000/svg" id="icon_find_facility_24px" width="24" height="24" viewBox="0 0 24 24">
    <defs>
        <style>
            .cls-2{fill:#b2b2b2}
        </style>
    </defs>
    <path id="사각형_729" fill="none" d="M0 0H24V24H0z"/>
    <g id="그룹_642" transform="translate(-192 -225.5)">
        <g id="그룹_641">
            <path id="패스_183" d="M204 245.5l-.3-.182c-.273-.167-6.7-4.282-6.7-10.4 0-3.539 3.14-6.418 7-6.418s7 2.879 7 6.418a8.887 8.887 0 0 1-.252 2.082.542.542 0 0 1-.643.375.5.5 0 0 1-.409-.589 7.986 7.986 0 0 0 .227-1.868 5.945 5.945 0 0 0-11.846 0c0 4.869 4.682 8.527 5.923 9.381a17.444 17.444 0 0 0 4.479-4.685.567.567 0 0 1 .734-.185.472.472 0 0 1 .2.673 18.6 18.6 0 0 1-5.116 5.216z" class="cls-2"/>
        </g>
        <path id="패스_184" d="M204 233.392a2 2 0 1 1-2 2 2 2 0 0 1 2-2m0-1a3 3 0 1 0 3 3 3 3 0 0 0-3-3z" class="cls-2"/>
    </g>
</svg>
