<svg xmlns="http://www.w3.org/2000/svg" id="icon_apple_logo" width="24" height="24" viewBox="0 0 24 24">
    <path id="사각형_16647" fill="none" d="M0 0H24V24H0z"/>
    <g id="_Sign_in_with_Apple" isolation="isolate" transform="translate(-503.746 -1510.57)">
        <g id="그룹_617" isolation="isolate">
            <path id="패스_165" d="M522.459 1519.512a3.93 3.93 0 0 0-1.875 3.312 3.853 3.853 0 0 0 2.324 3.527 9.281 9.281 0 0 1-1.189 2.47c-.742 1.068-1.528 2.146-2.707 2.146s-1.494-.7-2.853-.7c-1.337 0-1.807.718-2.886.718s-1.841-1-2.707-2.212a10.672 10.672 0 0 1-1.819-5.772c0-3.381 2.2-5.178 4.368-5.178 1.147 0 2.1.753 2.83.753.686 0 1.752-.8 3.067-.8a4.089 4.089 0 0 1 3.447 1.736zm-6.424-1.921a1.2 1.2 0 0 1-.235-.023 1.547 1.547 0 0 1-.034-.314 3.794 3.794 0 0 1 .955-2.358 3.87 3.87 0 0 1 2.56-1.326 1.639 1.639 0 0 1 .033.348 3.933 3.933 0 0 1-.919 2.437 3.41 3.41 0 0 1-2.36 1.236z"/>
        </g>
    </g>
</svg>
