<svg xmlns="http://www.w3.org/2000/svg" id="icon_delete_24px" width="24" height="24" viewBox="0 0 24 24">
    <path id="패스_161" d="M0 0h24v24H0z" fill="none"/>
    <g id="그룹_693" transform="translate(-141.313 -293)">
        <path id="사각형_16767" d="M0 0H24V24H0z" fill="none" transform="translate(141.313 293)"/>
        <g id="그룹_692">
            <path id="패스_234" d="M146.313 315h14v-16h-14zm1-15h12v14h-12z"/>
            <path id="패스_235" d="M150.313 302.5a.5.5 0 0 0-.5.5v8a.5.5 0 0 0 1 0v-8a.5.5 0 0 0-.5-.5z"/>
            <path id="패스_236" d="M153.313 302.5a.5.5 0 0 0-.5.5v8a.5.5 0 0 0 1 0v-8a.5.5 0 0 0-.5-.5z"/>
            <path id="패스_237" d="M156.313 302.5a.5.5 0 0 0-.5.5v8a.5.5 0 0 0 1 0v-8a.5.5 0 0 0-.5-.5z"/>
            <path id="패스_238" d="M161.313 297h-5v-2h-6v2h-5a.5.5 0 1 0 0 1h16a.5.5 0 0 0 0-1zm-10 0v-1h4v1z"/>
        </g>
    </g>
</svg>
