<svg id="icon_camera_24px" xmlns="http://www.w3.org/2000/svg" width="24" height="24"
    viewBox="0 0 24 24">
    <defs>
        <style>
            .cls-1 {
            fill: none;
            }
        </style>
    </defs>
    <g id="그룹_773" transform="translate(2 108)">
        <path id="패스_432"
            d="M5-95a5,5,0,0,0,5,5,5,5,0,0,0,5-5,5,5,0,0,0-5-5A5,5,0,0,0,5-95Zm9,0a4,4,0,0,1-4,4,4,4,0,0,1-4-4,4,4,0,0,1,4-4A4,4,0,0,1,14-95Z" />
        <path id="패스_433"
            d="M19.5-96a.5.5,0,0,0,.5-.5V-103H15v-2H5v2H0v16H20v-6.5a.5.5,0,0,0-.5-.5.5.5,0,0,0-.5.5V-88H1v-14H19v5.5A.5.5,0,0,0,19.5-96ZM14-103H6v-1h8Z" />
    </g>
    <rect id="사각형_16949" class="cls-1" width="24" height="24" />
</svg>
