<svg xmlns="http://www.w3.org/2000/svg" id="icon_dining_16px" width="16" height="16" viewBox="0 0 16 16">
    <g id="그룹_588">
        <path id="패스_153" fill="none" d="M0 0h16v16H0z"/>
    </g>
    <g id="그룹_722" transform="translate(-10 74)">
        <g id="패스_279" fill="none" stroke-miterlimit="10">
            <path d="M17.7-70a.3.3 0 0 0-.3.3v1.2h-.6v-1.2a.3.3 0 0 0-.3-.3.3.3 0 0 0-.3.3v1.2h-.6v-1.2a.3.3 0 0 0-.3-.3.3.3 0 0 0-.3.3v2.2a1.5 1.5 0 0 0 1 1.408V-62h1v-4.092a1.5 1.5 0 0 0 1-1.408v-2.2a.3.3 0 0 0-.3-.3z" stroke="none"/>
            <path d="M16-67.5c0 .24.169.406.336.466l.164.058.166-.059c.166-.058.334-.225.334-.465h-1m-.7-2.5c.166 0 .3.134.3.3v1.2h.6v-1.2c0-.166.134-.3.3-.3.166 0 .3.134.3.3v1.2h.6v-1.2c0-.166.134-.3.3-.3.166 0 .3.134.3.3v2.2c0 .652-.419 1.202-1 1.408V-62h-1v-4.092c-.581-.207-1-.756-1-1.408v-2.2c0-.166.134-.3.3-.3z" stroke="none" fill="#b2b2b2"/>
        </g>
        <g id="패스_280" fill="none" stroke-miterlimit="10">
            <path d="M21-68c0-1.105-.672-2-1.5-2s-1.5.895-1.5 2a2.041 2.041 0 0 0 1 1.878V-62h1v-4.122A2.041 2.041 0 0 0 21-68z" stroke="none"/>
            <path d="M19.5-69c-.176 0-.5.38-.5 1 0 .5.221.876.43.975l.07.033.07-.033c.209-.1.43-.474.43-.975 0-.62-.324-1-.5-1m0-1c.828 0 1.5.895 1.5 2 0 .87-.419 1.602-1 1.878V-62h-1v-4.122c-.581-.276-1-1.008-1-1.878 0-1.105.672-2 1.5-2z" stroke="none" fill="#b2b2b2"/>
        </g>
        <path id="패스_281" fill="#b2b2b2" d="M12-72v12h7a.5.5 0 0 0 .5-.5.5.5 0 0 0-.5-.5h-6v-10h10v10h-1a.5.5 0 0 0-.5.5.5.5 0 0 0 .5.5h2v-12z"/>
    </g>
</svg>
