<svg xmlns="http://www.w3.org/2000/svg" id="icon_facility05_off_48px" width="48" height="48" viewBox="0 0 48 48">
    <rect id="사각형_16894" width="48" height="48" fill="#fff" rx="16"/>
    <g id="그룹_764" transform="translate(6 221)">
        <path id="패스_427" d="M35-203H1v11h12v3h10v-3h12z" fill="#fff"/>
        <path id="사각형_16927" d="M0 0H6V5H0z" fill="#f4d425" transform="translate(4 -200)"/>
        <path id="사각형_16928" d="M0 0H12V2H0z" fill="#f4d425" transform="translate(1 -191)"/>
        <path id="사각형_16929" d="M0 0H12V2H0z" fill="#f4d425" transform="translate(23 -191)"/>
        <path id="사각형_16930" d="M0 0H6V5H0z" fill="#f4d425" transform="translate(26 -200)"/>
        <path id="사각형_16931" d="M0 0H38V4H0z" fill="#fff" transform="translate(-1 -208)"/>
        <path id="사각형_16932" d="M0 0H38V2H0z" fill="#fff" transform="translate(-1 -188)"/>
        <path id="사각형_16933" d="M0 0H48V48H0z" fill="none" transform="translate(-6 -221)"/>
        <path id="사각형_16934" d="M0 0H38V38H0z" fill="none" transform="translate(-1 -216)"/>
        <g id="그룹_763">
            <path id="패스_428" d="M10.5-194v-7h-7v7zm-6-6h5v5h-5z"/>
            <path id="패스_429" d="M32.5-194v-7h-7v7zm-6-6h5v5h-5z"/>
            <circle id="타원_216" cx=".5" cy=".5" r=".5" transform="translate(15.5 -195)"/>
            <circle id="타원_217" cx=".5" cy=".5" r=".5" transform="translate(19.5 -195)"/>
            <path id="패스_430" d="M35-198a.5.5 0 0 0 .5-.5v-4.5h2v-6h-39v6h2v14h-2v4h39v-4h-2v-6.5a.5.5 0 0 0-.5-.5.5.5 0 0 0-.5.5v3.5h-11v-9h-11v9h-11v-11h33v4.5a.5.5 0 0 0 .5.5zm1.5 10v2h-37v-2h37zm-2-3v2h-11v-2zm-12-9v11h-4v-11zm-9 0h4v11h-4v-11zm-1 9v2h-11v-2zm-12-13h-1v-4h37v4H.5z"/>
        </g>
    </g>
</svg>
