<svg xmlns="http://www.w3.org/2000/svg" id="icon_star_off_24px" width="24" height="24" viewBox="0 0 24 24">
    <defs>
        <style>
            .cls-1{fill:none}
        </style>
    </defs>
    <path id="패스_48" d="M0 0h24v24H0z" class="cls-1"/>
    <g id="그룹_654" transform="translate(-191 -141)">
        <path id="사각형_16758" d="M0 0H24V24H0z" class="cls-1" transform="translate(191 141)"/>
        <g id="그룹_653">
            <path id="패스_201" fill="#b2b2b2" d="M210.727 164L203 159.587 195.273 164l2.2-8.809-5.473-5.473 7.688-1.1 3.3-6.62 2.443 4.864a.5.5 0 0 1-.89.446l-1.549-3.087-2.647 5.307-6.236.89 4.469 4.466-1.774 7.1 6.2-3.539 6.2 3.539-1.774-7.1 4.469-4.466-3.984-.568a.5.5 0 1 1 .139-.985l5.954.851-5.477 5.473z"/>
        </g>
    </g>
</svg>
