<svg xmlns="http://www.w3.org/2000/svg" width="24" height="24" viewBox="0 0 24 24">
    <path fill="none" d="M0 0h24v24H0z"/>
    <g>
        <g>
            <path d="M-10 119.5a3.5 3.5 0 0 1-3.5-3.5 3.5 3.5 0 0 1 3.5-3.5 3.492 3.492 0 0 1 2.333.891.5.5 0 0 1 .04.706.5.5 0 0 1-.706.04A2.5 2.5 0 0 0-10 113.5a2.5 2.5 0 0 0-2.5 2.5 2.5 2.5 0 0 0 2.5 2.5 2.5 2.5 0 0 0 2.357-1.667A2.468 2.468 0 0 0-7.5 116a.5.5 0 0 1 .5-.5.5.5 0 0 1 .5.5 3.466 3.466 0 0 1-.2 1.167A3.5 3.5 0 0 1-10 119.5z" transform="translate(22 -104)"/>
        </g>
        <path d="M-9 108v2.039l.715.213a5.952 5.952 0 0 1 2.163 1.175l.569.483.624-.408 1.086-.707 1.092 1.676-1.085.706-.624.407.211.715A6 6 0 0 1-4 116a6.022 6.022 0 0 1-.264 1.764l-.219.712.62.413 1.074.717-1.111 1.664-1.076-.717-.621-.414-.573.477a5.965 5.965 0 0 1-2.117 1.132l-.715.213V124h-2v-2.039l-.715-.213a5.952 5.952 0 0 1-2.163-1.175l-.569-.483-.624.408-1.086.707-1.092-1.676 1.085-.706.624-.407-.211-.715A6.007 6.007 0 0 1-16 116a6.022 6.022 0 0 1 .264-1.764l.219-.712-.62-.413-1.074-.717 1.109-1.664 1.076.717.621.414.573-.477a5.965 5.965 0 0 1 2.117-1.132l.715-.213V108h2m1-1h-4v2.294a6.989 6.989 0 0 0-2.471 1.321l-1.908-1.271-2.219 3.328 1.906 1.271A7.018 7.018 0 0 0-17 116a7 7 0 0 0 .29 1.985l-1.923 1.252 2.184 3.352 1.924-1.254A6.978 6.978 0 0 0-12 122.706V125h4v-2.294a6.989 6.989 0 0 0 2.471-1.321l1.908 1.271 2.219-3.328-1.906-1.271A7.018 7.018 0 0 0-3 116a7 7 0 0 0-.29-1.985l1.923-1.252-2.184-3.352-1.924 1.254A6.978 6.978 0 0 0-8 109.294V107z" transform="translate(22 -104)"/>
    </g>
</svg>
