<svg xmlns="http://www.w3.org/2000/svg" id="icon_create_24px" width="24" height="24" viewBox="0 0 24 24">
    <defs>
        <style>
            .cls-1{fill:none}
        </style>
    </defs>
    <path id="패스_36" d="M0 0h24v24H0z" class="cls-1"/>
    <g id="그룹_698" transform="translate(-72 -264)">
        <path id="사각형_16770" d="M0 0H24V24H0z" class="cls-1" transform="translate(72 264)"/>
        <path id="패스_242" d="M91.534 269.828l-.707.708-1.415-1.415.707-.707 1.415 1.414m1.414 0L90.119 267 88 269.121l2.829 2.829 2.121-2.122z"/>
        <path id="패스_243" d="M87.291 274.778a.5.5 0 0 0 .707 0l2.121-2.121-2.828-2.829-11.314 11.314v2.829h2.829l7.071-7.072a.5.5 0 0 0-.707-.707l-6.778 6.779h-1.415v-1.415l10.314-10.313 1.414 1.414-1.414 1.414a.5.5 0 0 0 0 .707z"/>
    </g>
</svg>
