<svg xmlns="http://www.w3.org/2000/svg" id="icon_person_16px" width="16" height="16" viewBox="0 0 16 16">
    <defs>
        <style>
            .cls-2{fill:#939597}
        </style>
    </defs>
    <path id="패스_151" fill="none" d="M0 0h16v16H0z"/>
    <g id="그룹_720" transform="translate(-23 -5)">
        <path id="패스_275" d="M31 13a5 5 0 0 0-5 5h5a.5.5 0 0 0 0-1h-3.873a4 4 0 0 1 7.746 0H34a.5.5 0 0 0 0 1h2a5 5 0 0 0-5-5z" class="cls-2"/>
        <path id="패스_276" d="M31 8a2 2 0 1 1-2 2 2 2 0 0 1 2-2m0-1a3 3 0 1 0 3 3 3 3 0 0 0-3-3z" class="cls-2"/>
    </g>
</svg>
