<svg xmlns="http://www.w3.org/2000/svg" id="icon_naver_letter" width="53.87" height="10.001" viewBox="0 0 53.87 10.001">
    <defs>
        <style>
            .cls-1{fill:#00c73c}
        </style>
    </defs>
    <g id="그룹_636">
        <g id="그룹_635">
            <path id="패스_169" d="M475.383 1945.623v5.044l-3.456-5.044h-3.734v10h3.722v-5.048l3.455 5.048h3.73v-10z" fill="none" transform="translate(-468.193 -1945.623)"/>
            <path id="패스_170" d="M549.393 1951.883a2.774 2.774 0 0 0 2.176-2.857c0-2.576-2.044-3.4-4.738-3.4h-4.651v10h3.72v-3.126l2.222 3.124h4.278zm-1.828-2.038a1.721 1.721 0 0 1-.982.264h-.8v-1.971h.783a1.721 1.721 0 0 1 1.012.27.919.919 0 0 1 .3.734.849.849 0 0 1-.313.702z" fill="none" transform="translate(-498.534 -1945.623)"/>
            <path id="패스_171" d="M526.8 1945.623h7.547v2.6h-3.86v1.176h3.557v2.46h-3.557v1.157h3.977v2.6H526.8z" fill="none" transform="translate(-492.227 -1945.623)"/>
            <path id="패스_172" d="M496.207 1945.623h-4.245l-3.916 10h4.14l.362-1.307h3.076l.362 1.307h4.139zm-3.049 6.377l.875-3.3h.1l.876 3.3z" fill="none" transform="translate(-476.334 -1945.623)"/>
            <path id="패스_173" d="M513.122 1945.623l-1.835 6.028h-.1l-1.834-6.028h-4.06l4.187 10h3.515l4.189-10z" fill="none" transform="translate(-483.406 -1945.623)"/>
        </g>
    </g>
</svg>
