<svg xmlns="http://www.w3.org/2000/svg" id="icon_kakao_letter" width="32.703" height="10.002" viewBox="0 0 32.703 10.002">
    <defs>
        <style>
            .cls-1{fill:#ffcd00}
        </style>
    </defs>
    <path id="패스_174" d="M308.7 272.791h-1.14v-9.58l1.14-.248zm3.049-6.952l.892.644-2.194 2.751 2.541 3.049-.88.682-3-3.669z" class="cls-1" transform="translate(-307.559 -262.963)"/>
    <path id="패스_175" d="M352.2 288.326a1.871 1.871 0 0 1 .688-1.568 3.191 3.191 0 0 1 2-.539h1.312v-.434q0-1.574-1.388-1.574a3.8 3.8 0 0 0-.935.124 5.331 5.331 0 0 0-.9.31l-.335-.806a4.664 4.664 0 0 1 1.1-.44 4.507 4.507 0 0 1 1.146-.155q2.4 0 2.4 2.565v4.338h-.842l-.136-.743a4.073 4.073 0 0 1-1.085.632 3.036 3.036 0 0 1-1.1.223 1.781 1.781 0 0 1-1.933-1.933zm2.14 1.016a2.035 2.035 0 0 0 .487-.062 3.99 3.99 0 0 0 .506-.161 2.718 2.718 0 0 0 .475-.242 2.791 2.791 0 0 0 .4-.3v-1.586h-1.185a2.212 2.212 0 0 0-1.314.31 1.145 1.145 0 0 0-.413.979.935.935 0 0 0 1.045 1.062z" class="cls-1" transform="translate(-345.762 -280.318)"/>
    <path id="패스_176" d="M402.732 272.791h-1.14v-9.58l1.14-.248zm3.048-6.952l.892.644-2.193 2.751 2.54 3.049-.88.682-3-3.669z" class="cls-1" transform="translate(-388.032 -262.963)"/>
    <path id="패스_177" d="M446.234 288.326a1.872 1.872 0 0 1 .687-1.568 3.193 3.193 0 0 1 2-.539h1.314v-.434q0-1.574-1.388-1.574a3.807 3.807 0 0 0-.936.124 5.3 5.3 0 0 0-.9.31l-.335-.806a4.67 4.67 0 0 1 1.1-.44 4.508 4.508 0 0 1 1.146-.155q2.4 0 2.4 2.565v4.338h-.843l-.136-.743a4.059 4.059 0 0 1-1.085.632 3.035 3.035 0 0 1-1.1.223 1.78 1.78 0 0 1-1.933-1.933zm2.14 1.016a2.04 2.04 0 0 0 .487-.062 3.99 3.99 0 0 0 .506-.161 2.75 2.75 0 0 0 .475-.242 2.827 2.827 0 0 0 .395-.3v-1.586h-1.184a2.209 2.209 0 0 0-1.314.31 1.143 1.143 0 0 0-.413.979.935.935 0 0 0 1.048 1.062z" class="cls-1" transform="translate(-426.235 -280.318)"/>
    <path id="패스_178" d="M495.416 283.331a2.8 2.8 0 0 1 2.218.917 3.858 3.858 0 0 1 .806 2.627 3.789 3.789 0 0 1-.8 2.591 3.18 3.18 0 0 1-4.443 0 3.77 3.77 0 0 1-.806-2.591 3.84 3.84 0 0 1 .812-2.627 2.805 2.805 0 0 1 2.213-.917zm0 .917a1.579 1.579 0 0 0-1.369.669 3.353 3.353 0 0 0-.478 1.958 3.237 3.237 0 0 0 .478 1.927 1.779 1.779 0 0 0 2.751 0 3.242 3.242 0 0 0 .477-1.927 3.358 3.358 0 0 0-.477-1.958 1.594 1.594 0 0 0-1.382-.669z" class="cls-1" transform="translate(-465.737 -280.394)"/>
</svg>
